<svg width="82" height="18" viewBox="0 0 82 18" fill="none" xmlns="http://www.w3.org/2000/svg">
<path d="M16.8643 10.6324C15.7209 15.2187 11.0756 18.01 6.4887 16.8662C1.90365 15.7228 -0.887565 11.0773 0.256424 6.49115C1.39934 1.90422 6.04459 -0.887262 10.6302 0.256193C15.2168 1.39965 18.0078 6.0457 16.8643 10.6324Z" fill="#F7931A"/>
<path d="M12.3335 7.34185C12.504 6.20268 11.6366 5.59028 10.4506 5.18175L10.8353 3.6386L9.896 3.4045L9.52145 4.90699C9.27451 4.84546 9.02088 4.7874 8.76886 4.72988L9.14609 3.21749L8.2073 2.9834L7.82232 4.52602C7.61792 4.47947 7.41727 4.43345 7.2225 4.38503L7.22357 4.38021L5.92815 4.05676L5.67827 5.06002C5.67827 5.06002 6.37521 5.21974 6.36049 5.22964C6.74093 5.32462 6.80969 5.57637 6.79819 5.77595L6.35996 7.53394C6.38618 7.54063 6.42016 7.55026 6.45761 7.56524C6.42631 7.55748 6.39287 7.54892 6.35836 7.54063L5.74409 10.0033C5.69754 10.1189 5.57955 10.2922 5.31362 10.2264C5.32299 10.2401 4.63087 10.056 4.63087 10.056L4.16455 11.1312L5.38693 11.436C5.61434 11.493 5.83719 11.5526 6.05657 11.6088L5.66784 13.1696L6.60609 13.4037L6.99108 11.8595C7.24738 11.929 7.49619 11.9933 7.73965 12.0537L7.356 13.5907L8.29532 13.8248L8.68405 12.2669C10.2858 12.5701 11.4903 12.4478 11.9972 10.9991C12.4058 9.83262 11.9769 9.15976 11.1342 8.721C11.7479 8.57948 12.2102 8.17576 12.3335 7.34185ZM10.1873 10.3514C9.89707 11.5178 7.93308 10.8873 7.29634 10.7291L7.81215 8.66134C8.44889 8.82026 10.4907 9.13488 10.1873 10.3514ZM10.4779 7.32499C10.213 8.38605 8.57838 7.84696 8.04812 7.71479L8.51577 5.83936C9.04603 5.97152 10.7537 6.21819 10.4779 7.32499Z" fill="white"/>
<path d="M25.0873 5.18129C25.7815 5.18129 26.3813 5.30569 26.8854 5.54995C27.3918 5.79662 27.8097 6.1289 28.1449 6.5468C28.4756 6.96683 28.7218 7.45776 28.8807 8.02039C29.0385 8.58463 29.1177 9.19113 29.1177 9.84045C29.1177 10.8378 28.935 11.7801 28.5661 12.6683C28.1971 13.5579 27.6966 14.3295 27.0598 14.9876C26.4236 15.6449 25.6724 16.1632 24.8061 16.546C23.9411 16.9291 23.0007 17.1207 21.9911 17.1207C21.8605 17.1207 21.6309 17.1169 21.3067 17.1102C20.9824 17.1035 20.6098 17.0701 20.1924 17.0137C19.7724 16.9551 19.3283 16.8684 18.8593 16.7523C18.3905 16.6383 17.9454 16.4786 17.5261 16.2758L21.2749 0.524266L24.6325 0.00390625L23.2902 5.59356C23.5776 5.46407 23.867 5.36375 24.156 5.29071C24.4452 5.21874 24.7555 5.18129 25.0873 5.18129ZM22.2709 14.4571C22.7765 14.4571 23.253 14.3327 23.7006 14.0884C24.1495 13.8439 24.5369 13.5137 24.8615 13.1025C25.186 12.6895 25.4428 12.2242 25.6301 11.7044C25.8174 11.1846 25.9121 10.6423 25.9121 10.078C25.9121 9.38483 25.7962 8.84414 25.5654 8.45327C25.3345 8.064 24.9072 7.86816 24.2868 7.86816C24.0835 7.86816 23.8215 7.90696 23.4967 7.97625C23.1709 8.04982 22.8793 8.20258 22.6179 8.4324L21.1887 14.3685C21.2749 14.3838 21.3511 14.3982 21.4161 14.4119C21.4798 14.4266 21.5502 14.437 21.6202 14.4442C21.6944 14.4525 21.7792 14.4568 21.8816 14.4568C21.9841 14.4568 22.1122 14.4571 22.2709 14.4571Z" fill="white"/>
<path d="M32.6005 16.8179H29.3936L32.1018 5.42163H35.3307L32.6005 16.8179ZM34.1611 4.03311C33.7135 4.03311 33.3076 3.89988 32.9475 3.63287C32.5845 3.36748 32.4047 2.95895 32.4047 2.40836C32.4047 2.1055 32.4662 1.82138 32.5882 1.55331C32.7121 1.28577 32.8739 1.05542 33.0767 0.859582C33.2793 0.66535 33.5139 0.510179 33.7804 0.393265C34.0484 0.278224 34.3336 0.220703 34.6376 0.220703C35.0849 0.220703 35.4886 0.353937 35.85 0.620939C36.2101 0.889279 36.3913 1.29781 36.3913 1.84546C36.3913 2.14938 36.33 2.43457 36.2069 2.70211C36.0847 2.96965 35.9228 3.2 35.72 3.39584C35.5191 3.59033 35.2823 3.74497 35.0164 3.86081C34.748 3.97773 34.4639 4.03311 34.1611 4.03311Z" fill="white"/>
<path d="M38.1406 2.58286L41.4995 2.0625L40.6747 5.4217H44.272L43.6224 8.06443H40.0468L39.0944 12.0507C39.0066 12.383 38.9568 12.6934 38.9429 12.9818C38.9271 13.2715 38.9638 13.5203 39.0505 13.7298C39.1366 13.9398 39.2915 14.1017 39.5163 14.2162C39.7399 14.3326 40.0602 14.3912 40.4802 14.3912C40.8261 14.3912 41.1632 14.3582 41.4891 14.293C41.8131 14.2288 42.1413 14.1394 42.4736 14.0225L42.7128 16.4935C42.2794 16.6524 41.8101 16.7891 41.3045 16.9041C40.798 17.0208 40.1985 17.077 39.5056 17.077C38.5092 17.077 37.7369 16.929 37.1865 16.6344C36.637 16.3378 36.2486 15.9324 36.0161 15.4193C35.7868 14.908 35.6843 14.3186 35.7129 13.6546C35.7426 12.989 35.843 12.2894 36.0161 11.5526L38.1406 2.58286Z" fill="white"/>
<path d="M44.1306 12.2682C44.1306 11.2866 44.2895 10.361 44.6071 9.49441C44.9241 8.62705 45.3808 7.86859 45.9734 7.21767C46.5639 6.56996 47.2833 6.05682 48.13 5.68013C48.9728 5.30558 49.9164 5.1167 50.9563 5.1167C51.6072 5.1167 52.1886 5.17823 52.7001 5.30157C53.2138 5.42597 53.6785 5.58676 54.0988 5.78849L52.9928 8.30333C52.7038 8.18615 52.4039 8.08288 52.0939 7.98925C51.7835 7.89374 51.4047 7.84772 50.9566 7.84772C49.8861 7.84772 49.0399 8.21665 48.4101 8.95211C47.7828 9.68811 47.4668 10.6788 47.4668 11.9215C47.4668 12.658 47.6257 13.2536 47.9446 13.7092C48.2619 14.1648 48.8481 14.3914 49.6991 14.3914C50.1192 14.3914 50.5245 14.3475 50.9127 14.2619C51.3038 14.1752 51.6492 14.0661 51.9534 13.9371L52.1929 16.5151C51.7873 16.6724 51.3399 16.8145 50.8493 16.9389C50.3575 17.059 49.7722 17.1214 49.0934 17.1214C48.1975 17.1214 47.439 16.9903 46.8186 16.7321C46.1979 16.4699 45.685 16.1218 45.281 15.6809C44.8749 15.239 44.5833 14.7229 44.403 14.1306C44.2226 13.5388 44.1306 12.917 44.1306 12.2682Z" fill="white"/>
<path d="M58.3764 17.1209C57.611 17.1209 56.9461 17.0042 56.3822 16.7733C55.8198 16.5425 55.354 16.2185 54.9856 15.7984C54.6167 15.3805 54.3406 14.8853 54.1514 14.3147C53.9623 13.7443 53.8713 13.1126 53.8713 12.4205C53.8713 11.5524 54.0107 10.6845 54.2924 9.81898C54.5728 8.95162 54.9888 8.17229 55.5394 7.47964C56.0857 6.78591 56.7597 6.21873 57.5532 5.77649C58.3459 5.3372 59.2577 5.11621 60.2818 5.11621C61.0333 5.11621 61.6947 5.23312 62.2664 5.46401C62.8354 5.69436 63.3042 6.02102 63.6747 6.43892C64.0412 6.85895 64.3197 7.35202 64.507 7.92348C64.6956 8.4928 64.7887 9.12606 64.7887 9.81871C64.7887 10.6842 64.6512 11.5521 64.3783 12.4202C64.1052 13.2841 63.6999 14.0653 63.1648 14.7596C62.6308 15.4522 61.963 16.0192 61.1609 16.4595C60.3599 16.8999 59.431 17.1209 58.3764 17.1209ZM59.9792 7.8475C59.5038 7.8475 59.0835 7.98555 58.7237 8.25817C58.3625 8.534 58.0591 8.88073 57.8146 9.29889C57.5674 9.71892 57.3841 10.1769 57.2602 10.6748C57.1374 11.1738 57.0772 11.6455 57.0772 12.0936C57.0772 12.8167 57.1939 13.3799 57.4232 13.7852C57.6557 14.1884 58.0733 14.3912 58.6803 14.3912C59.1573 14.3912 59.5755 14.2542 59.9375 13.9787C60.2965 13.705 60.6002 13.358 60.8466 12.939C61.0922 12.5211 61.277 12.0617 61.4009 11.5631C61.5221 11.0657 61.5839 10.5914 61.5839 10.144C61.5839 9.42276 61.4678 8.85825 61.2364 8.45347C61.0052 8.05029 60.5857 7.8475 59.9792 7.8475Z" fill="white"/>
<path d="M68.2844 16.8179H65.0747L67.783 5.42163H71.0135L68.2844 16.8179ZM69.8425 4.03311C69.3952 4.03311 68.9896 3.89988 68.63 3.63287C68.2688 3.36748 68.0874 2.95895 68.0874 2.40836C68.0874 2.1055 68.1498 1.82138 68.272 1.55331C68.3943 1.28577 68.5572 1.05542 68.76 0.859582C68.9615 0.66535 69.1983 0.510179 69.4642 0.393265C69.7307 0.278224 70.0159 0.220703 70.3187 0.220703C70.7671 0.220703 71.1722 0.353937 71.5328 0.620939C71.8937 0.889279 72.0759 1.29781 72.0759 1.84546C72.0759 2.14938 72.0111 2.43457 71.89 2.70211C71.7688 2.96965 71.6058 3.2 71.4038 3.39584C71.2005 3.59033 70.9667 3.74497 70.7002 3.86081C70.4316 3.97773 70.1469 4.03311 69.8425 4.03311Z" fill="white"/>
<path d="M73.3234 5.94061C73.5669 5.86944 73.8387 5.78383 74.1343 5.69073C74.431 5.59763 74.7625 5.51094 75.1328 5.43282C75.499 5.35229 75.9124 5.28702 76.3669 5.23645C76.8214 5.18482 77.3394 5.15967 77.9149 5.15967C79.6062 5.15967 80.7722 5.6522 81.4159 6.63433C82.059 7.61646 82.1703 8.96057 81.753 10.6642L80.2778 16.8176H77.0497L78.4794 10.7937C78.5666 10.4176 78.6351 10.054 78.6856 9.6987C78.7367 9.34663 78.7338 9.03628 78.6741 8.76767C78.6172 8.50228 78.4829 8.28504 78.2744 8.11676C78.0628 7.95115 77.7431 7.86795 77.3094 7.86795C76.8913 7.86795 76.4659 7.91289 76.0317 7.99958L73.9296 16.8173H70.7002L73.3234 5.94061Z" fill="white"/>
</svg>
