<svg width="100" height="32" viewBox="0 0 100 32" fill="none" xmlns="http://www.w3.org/2000/svg">
<path d="M31.7605 17.2873C31.7605 17.4527 31.6221 17.5875 31.4565 17.5875H25.602C25.7482 19.0337 26.8366 20.3532 28.3678 20.3532C29.4139 20.3532 30.1912 19.9532 30.7758 19.1186C30.8605 19.003 30.9874 18.9301 31.1489 18.9994C31.2374 19.0379 31.2989 19.1186 31.3142 19.211C31.3295 19.3071 31.3028 19.3611 31.2758 19.4148C30.6873 20.4418 29.5142 20.9456 28.3639 20.9456C26.3943 20.9456 24.9904 19.184 24.9904 17.299C24.9904 15.4141 26.3943 13.6522 28.3639 13.6522C30.3335 13.6486 31.7566 15.4063 31.7605 17.2873ZM31.1335 17.0028C31.0066 15.5566 29.8989 14.2371 28.3678 14.2371C26.8369 14.2371 25.7482 15.5563 25.602 17.0028H31.1335ZM38.8652 13.7947C39.0344 13.7947 39.1575 13.9409 39.1575 14.087C39.1575 14.2563 39.0305 14.3793 38.8652 14.3793H37.2956V20.5378C37.2956 20.6839 37.1687 20.8301 37.0033 20.8301C36.8341 20.8301 36.711 20.6839 36.711 20.5378V14.3793H35.203C35.0337 14.3793 34.9107 14.2524 34.9107 14.087C34.9107 13.9409 35.0376 13.7947 35.203 13.7947H36.711V11.5406C36.711 11.3984 36.807 11.2675 36.9457 11.2444C37.142 11.2135 37.2956 11.3483 37.2956 11.5328V13.7947H38.8652ZM48.4394 16.7718V20.503C48.4394 20.6722 48.2933 20.7953 48.1471 20.7953C47.9779 20.7953 47.8548 20.6683 47.8548 20.503V16.7718C47.8548 15.514 47.1433 14.256 45.7391 14.256C43.9388 14.256 43.1618 15.8291 43.2656 17.441C43.2656 17.4833 43.2848 17.6718 43.2848 17.691V20.4913C43.2848 20.6335 43.1888 20.7644 43.0501 20.7875C42.8539 20.8184 42.7002 20.6836 42.7002 20.4991V8.24396C42.7002 8.09781 42.8272 7.95166 42.9925 7.95166C43.1618 7.95166 43.2848 8.09781 43.2848 8.24396V15.1794C43.7887 14.2794 44.6887 13.6714 45.7352 13.6714C47.4548 13.6714 48.4394 15.1794 48.4394 16.7718ZM58.9371 17.2873C58.9371 17.4527 58.7988 17.5875 58.6331 17.5875H52.7748C52.9209 19.0337 54.0094 20.3532 55.5405 20.3532C56.5867 20.3532 57.364 19.9532 57.9486 19.1186C58.0332 19.003 58.1602 18.9301 58.3216 18.9994C58.4101 19.0379 58.4717 19.1186 58.487 19.211C58.5023 19.3071 58.4756 19.3611 58.4486 19.4148C57.8601 20.4418 56.6869 20.9456 55.5366 20.9456C53.567 20.9456 52.1632 19.184 52.1632 17.299C52.1632 15.4141 53.567 13.6525 55.5366 13.6525C57.5098 13.6486 58.9332 15.4063 58.9371 17.2873ZM58.3063 17.0028C58.1794 15.5566 57.0717 14.2371 55.5405 14.2371C54.0097 14.2371 52.9209 15.5563 52.7748 17.0028H58.3063ZM66.1226 14.0678C66.1226 14.2563 66.0187 14.3601 65.8495 14.3832C64.1302 14.6332 63.3568 16.0374 63.3568 17.6721V20.4724C63.3568 20.6146 63.2608 20.7455 63.1221 20.7686C62.9258 20.7995 62.7722 20.6647 62.7722 20.4802V14.0984C62.7722 13.9562 62.8682 13.8253 63.0069 13.8022C63.2031 13.7713 63.3568 13.9061 63.3568 14.0906V15.3907C63.8376 14.5753 64.803 13.798 65.8072 13.798C65.9533 13.7947 66.1226 13.9022 66.1226 14.0678ZM75.7391 17.2873C75.7391 17.4527 75.6008 17.5875 75.4351 17.5875H69.5807C69.7268 19.0337 70.8153 20.3532 72.3465 20.3532C73.3926 20.3532 74.1699 19.9532 74.7545 19.1186C74.8391 19.003 74.9661 18.9301 75.1275 18.9994C75.2161 19.0379 75.2776 19.1186 75.2929 19.211C75.3082 19.3071 75.2815 19.3611 75.2545 19.4148C74.666 20.4418 73.4929 20.9456 72.3426 20.9456C70.373 20.9456 68.9691 19.184 68.9691 17.299C68.9691 15.4141 70.373 13.6525 72.3426 13.6525C74.3121 13.6486 75.7352 15.4063 75.7391 17.2873ZM75.1122 17.0028C74.9853 15.5566 73.8776 14.2371 72.3465 14.2371C70.8156 14.2371 69.7268 15.5563 69.5807 17.0028H75.1122ZM85.1904 14.1407V20.5378C85.1904 20.707 85.0442 20.8301 84.8981 20.8301C84.7288 20.8301 84.6058 20.7031 84.6058 20.5378V19.3224C84.125 20.2878 83.2634 20.9765 82.1746 20.9765C80.4358 20.9765 79.4704 19.4685 79.4704 17.8762V14.1254C79.4704 13.9793 79.5973 13.8331 79.7627 13.8331C79.9319 13.8331 80.055 13.9793 80.055 14.1254V17.8759C80.055 19.1336 80.7665 20.3916 82.1707 20.3916C84.1403 20.3916 84.6019 18.549 84.6019 16.5143V14.1254C84.6019 13.9562 84.7711 13.783 84.9788 13.8445C85.1057 13.8868 85.1904 14.0099 85.1904 14.1407ZM100 16.749V20.4994C100 20.6686 99.8538 20.7917 99.7077 20.7917C99.5384 20.7917 99.4154 20.6647 99.4154 20.4994V16.749C99.4154 15.4912 98.7038 14.2563 97.2996 14.2563C95.538 14.2563 94.8685 16.1412 94.8685 17.6067V20.4994C94.8685 20.6686 94.7223 20.7917 94.5762 20.7917C94.4069 20.7917 94.2839 20.6647 94.2839 20.4994V16.749C94.2839 15.4912 93.5723 14.2563 92.1681 14.2563C90.387 14.2563 89.6523 15.6602 89.7178 17.5259C89.7178 17.5682 89.737 17.6529 89.7178 17.6721V20.4916C89.7178 20.6338 89.6217 20.7647 89.4792 20.7878C89.2829 20.8187 89.1293 20.6839 89.1293 20.4994V14.0984C89.1293 13.9562 89.2253 13.8253 89.3639 13.8022C89.5602 13.7713 89.7139 13.9061 89.7139 14.0906V15.1599C90.2177 14.2599 91.1178 13.6714 92.1642 13.6714C93.3565 13.6714 94.28 14.4252 94.6569 15.5371C95.1377 14.4486 96.0803 13.6714 97.2957 13.6714C99.0153 13.6714 100 15.1563 100 16.749Z" fill="white"/>
<g opacity="0.6">
<g opacity="0.6">
<path opacity="0.6" d="M9.78584 11.7861L0 16.2367L9.78584 22.0182L19.5678 16.2367L9.78584 11.7861Z" fill="white"/>
</g>
</g>
<g opacity="0.45">
<g opacity="0.45">
<path opacity="0.45" d="M0 16.2366L9.78584 22.0181V0L0 16.2366Z" fill="white"/>
</g>
</g>
<g opacity="0.8">
<g opacity="0.8">
<path opacity="0.8" d="M9.78589 0V22.0181L19.5678 16.2366L9.78589 0Z" fill="white"/>
</g>
</g>
<g opacity="0.45">
<g opacity="0.45">
<path opacity="0.45" d="M0 18.0908L9.78584 31.8771V23.8721L0 18.0908Z" fill="white"/>
</g>
</g>
<g opacity="0.8">
<g opacity="0.8">
<path opacity="0.8" d="M9.78589 23.8724V31.8771L19.5756 18.0908L9.78589 23.8724Z" fill="white"/>
</g>
</g>
</svg>
