<svg width="105" height="29" viewBox="0 0 105 29" fill="none" xmlns="http://www.w3.org/2000/svg">
<path d="M12.2389 0.615234C9.8183 0.615234 7.45203 1.33303 5.43935 2.67786C3.42667 4.02269 1.85797 5.93415 0.931638 8.17052C0.00530291 10.4069 -0.237069 12.8677 0.235173 15.2418C0.707414 17.616 1.87306 19.7967 3.5847 21.5084C5.29635 23.22 7.47711 24.3857 9.85123 24.8579C12.2253 25.3301 14.6862 25.0878 16.9226 24.1614C19.1589 23.2351 21.0704 21.6664 22.4152 19.6537C23.76 17.6411 24.4778 15.2748 24.4778 12.8542C24.4778 11.2469 24.1613 9.65542 23.5462 8.17052C22.9311 6.68563 22.0296 5.33642 20.8931 4.19993C19.7567 3.06344 18.4074 2.16193 16.9226 1.54687C15.4377 0.931803 13.8462 0.615234 12.2389 0.615234V0.615234ZM12.4373 13.2568L11.1642 17.5525H17.9735C18.0662 17.5525 18.155 17.5894 18.2205 17.6549C18.2861 17.7204 18.3229 17.8092 18.3229 17.9019C18.3223 17.935 18.3173 17.9678 18.3081 17.9996L17.7159 20.0394C17.6877 20.1369 17.6285 20.2225 17.5473 20.2834C17.4662 20.3442 17.3674 20.3771 17.2659 20.3769H6.86552L8.62409 14.438L6.67901 15.0302L7.10829 13.6417L9.05633 13.0496L11.5254 4.70672C11.5526 4.60895 11.611 4.52275 11.6917 4.46128C11.7724 4.39981 11.871 4.36643 11.9725 4.36625H14.6074C14.7 4.36625 14.7889 4.40306 14.8544 4.46857C14.9199 4.53409 14.9567 4.62295 14.9567 4.7156C14.9612 4.74701 14.9612 4.77892 14.9567 4.81034L12.8725 11.8653L14.8057 11.2732L14.3883 12.6854L12.4373 13.2568Z" fill="url(#paint0_linear)"/>
<path d="M35.3884 19.9299H32.5564V4.92993H35.3884V19.9299ZM40.7009 19.9299H37.8689V9.36353H40.7009V19.9299ZM37.7029 6.62915C37.7029 6.20597 37.8429 5.85767 38.1228 5.58423C38.4093 5.31079 38.7966 5.17407 39.2849 5.17407C39.7667 5.17407 40.1508 5.31079 40.4373 5.58423C40.7237 5.85767 40.8669 6.20597 40.8669 6.62915C40.8669 7.05884 40.7205 7.4104 40.4275 7.68384C40.141 7.95728 39.7602 8.09399 39.2849 8.09399C38.8097 8.09399 38.4255 7.95728 38.1326 7.68384C37.8461 7.4104 37.7029 7.05884 37.7029 6.62915ZM46.4138 6.76587V9.36353H48.2205V11.4338H46.4138V16.7073C46.4138 17.0979 46.4887 17.3778 46.6384 17.5471C46.7882 17.7164 47.0746 17.801 47.4978 17.801C47.8103 17.801 48.087 17.7782 48.3279 17.7327V19.8713C47.7745 20.0406 47.2048 20.1252 46.6189 20.1252C44.6397 20.1252 43.6306 19.1259 43.5916 17.1272V11.4338H42.0486V9.36353H43.5916V6.76587H46.4138ZM54.656 20.1252C53.1065 20.1252 51.8435 19.65 50.8669 18.6995C49.8969 17.7489 49.4119 16.4827 49.4119 14.9006V14.6272C49.4119 13.566 49.6169 12.6187 50.0271 11.7854C50.4373 10.9456 51.0167 10.301 51.7654 9.85181C52.5206 9.39608 53.38 9.16821 54.3435 9.16821C55.7888 9.16821 56.9249 9.62394 57.7517 10.5354C58.585 11.4469 59.0017 12.7392 59.0017 14.4124V15.5647H52.2732C52.3643 16.2548 52.6378 16.8082 53.0935 17.2249C53.5557 17.6415 54.1384 17.8499 54.8416 17.8499C55.9288 17.8499 56.7784 17.456 57.3904 16.6682L58.7771 18.2209C58.3539 18.8199 57.781 19.2887 57.0583 19.6272C56.3357 19.9592 55.5349 20.1252 54.656 20.1252ZM54.3337 11.4534C53.7738 11.4534 53.3181 11.6422 52.9666 12.0198C52.6215 12.3974 52.4001 12.9377 52.3025 13.6409H56.2283V13.4163C56.2153 12.7913 56.046 12.3095 55.7205 11.9709C55.3949 11.6259 54.9327 11.4534 54.3337 11.4534ZM65.0076 17.8499C65.5284 17.8499 65.9516 17.7066 66.2771 17.4202C66.6026 17.1337 66.7719 16.7528 66.7849 16.2776H69.4314C69.4249 16.9937 69.2296 17.6513 68.8455 18.2502C68.4613 18.8427 67.934 19.3049 67.2634 19.637C66.5994 19.9625 65.8637 20.1252 65.0564 20.1252C63.546 20.1252 62.3546 19.6467 61.4822 18.6897C60.6098 17.7262 60.1736 16.398 60.1736 14.7053V14.5198C60.1736 12.8922 60.6065 11.5933 61.4724 10.6233C62.3383 9.65324 63.5264 9.16821 65.0369 9.16821C66.3585 9.16821 67.4164 9.54582 68.2107 10.301C69.0115 11.0497 69.4184 12.0491 69.4314 13.2991H66.7849C66.7719 12.7522 66.6026 12.3095 66.2771 11.9709C65.9516 11.6259 65.5219 11.4534 64.988 11.4534C64.3305 11.4534 63.8324 11.6943 63.4939 12.176C63.1619 12.6513 62.9958 13.426 62.9958 14.5002V14.7932C62.9958 15.8805 63.1619 16.6617 63.4939 17.137C63.8259 17.6122 64.3305 17.8499 65.0076 17.8499ZM70.6033 14.5491C70.6033 13.5009 70.8051 12.5667 71.2087 11.7463C71.6124 10.926 72.1918 10.2913 72.947 9.84204C73.7087 9.39282 74.5909 9.16821 75.5935 9.16821C77.0193 9.16821 78.1814 9.60441 79.0798 10.4768C79.9848 11.3492 80.4893 12.5341 80.5935 14.0315L80.613 14.7542C80.613 16.3752 80.1606 17.6773 79.2556 18.6604C78.3507 19.637 77.1365 20.1252 75.613 20.1252C74.0896 20.1252 72.8722 19.637 71.9607 18.6604C71.0557 17.6838 70.6033 16.3557 70.6033 14.676V14.5491ZM73.4255 14.7542C73.4255 15.7568 73.6143 16.525 73.9919 17.0588C74.3695 17.5862 74.9099 17.8499 75.613 17.8499C76.2966 17.8499 76.8305 17.5894 77.2146 17.0686C77.5987 16.5413 77.7908 15.7014 77.7908 14.5491C77.7908 13.566 77.5987 12.8043 77.2146 12.2639C76.8305 11.7236 76.2901 11.4534 75.5935 11.4534C74.9034 11.4534 74.3695 11.7236 73.9919 12.2639C73.6143 12.7978 73.4255 13.6278 73.4255 14.7542ZM85.3298 19.9299H82.4978V9.36353H85.3298V19.9299ZM82.3318 6.62915C82.3318 6.20597 82.4718 5.85767 82.7517 5.58423C83.0382 5.31079 83.4255 5.17407 83.9138 5.17407C84.3956 5.17407 84.7797 5.31079 85.0662 5.58423C85.3526 5.85767 85.4958 6.20597 85.4958 6.62915C85.4958 7.05884 85.3494 7.4104 85.0564 7.68384C84.7699 7.95728 84.3891 8.09399 83.9138 8.09399C83.4386 8.09399 83.0544 7.95728 82.7615 7.68384C82.475 7.4104 82.3318 7.05884 82.3318 6.62915ZM90.2615 9.36353L90.3494 10.5842C91.1046 9.64022 92.1169 9.16821 93.3865 9.16821C94.5063 9.16821 95.3396 9.49699 95.8865 10.1545C96.4333 10.8121 96.7133 11.7952 96.7263 13.1038V19.9299H93.9041V13.1721C93.9041 12.5732 93.7738 12.1402 93.5134 11.8733C93.253 11.5999 92.8201 11.4631 92.2146 11.4631C91.4203 11.4631 90.8246 11.8017 90.4275 12.4788V19.9299H87.6052V9.36353H90.2615Z" fill="white"/>
<defs>
<linearGradient id="paint0_linear" x1="12.2389" y1="0.615234" x2="12.2389" y2="25.0931" gradientUnits="userSpaceOnUse">
<stop stop-color="white"/>
<stop offset="1" stop-color="#AAA9A9"/>
</linearGradient>
</defs>
</svg>
