<svg width="113" height="24" viewBox="0 0 113 24" fill="none" xmlns="http://www.w3.org/2000/svg">
<path d="M108.845 8.12391C110.919 7.78495 112.325 5.82896 111.986 3.75509C111.647 1.68123 109.691 0.27481 107.617 0.613779C105.544 0.952749 104.137 2.90874 104.476 4.98261C104.815 7.05648 106.771 8.46288 108.845 8.12391Z" fill="#F01010"/>
<path fill-rule="evenodd" clip-rule="evenodd" d="M99.6262 7.51409C99.5509 7.53922 99.524 7.61462 99.4989 7.71682C99.4989 7.84416 99.524 7.91955 99.5743 7.96814L100.156 8.07034C100.333 8.09379 100.434 8.14573 100.511 8.19599C100.586 8.24793 100.611 8.29819 100.611 8.37359C100.611 8.49925 100.561 8.70198 100.434 9.03036C100.308 9.36042 100.156 9.76252 99.9529 10.245L99.3213 11.7362C99.1437 12.1148 98.9912 12.4449 98.8656 12.6962C98.7399 12.976 98.6629 13.1017 98.6377 13.1017C98.6126 13.1017 98.5623 12.9995 98.4853 12.8235C98.4099 12.6476 98.3345 12.47 98.2591 12.2673C98.182 12.0646 98.1318 11.9121 98.0815 11.7864L97.5001 10.0675C97.4499 9.94012 97.3745 9.76252 97.2974 9.50953C97.222 9.28335 97.1449 9.02868 97.0695 8.8025C96.9941 8.57464 96.969 8.39872 96.969 8.29652C96.969 8.24626 96.9941 8.19432 97.0444 8.16919C97.1198 8.14405 97.222 8.09211 97.3728 8.06866L97.8285 7.96646C97.9039 7.9162 97.929 7.8408 97.9039 7.71515C97.9039 7.61294 97.8536 7.53755 97.7766 7.51242C97.4984 7.53755 97.2203 7.53755 96.9439 7.56268H96.1581H95.2735C94.9953 7.53755 94.6921 7.53755 94.3888 7.51242C94.3118 7.53755 94.2615 7.61294 94.2615 7.71515C94.2364 7.8408 94.2615 7.91787 94.3118 7.96646L94.7926 8.06866C95.121 8.14405 95.3489 8.29652 95.4745 8.5227C95.6019 8.75056 95.7526 9.07895 95.8783 9.50786L97.3711 13.5289C97.4968 13.8573 97.5738 14.1086 97.6241 14.2879C97.6492 14.4638 97.6744 14.6414 97.6744 14.8173C97.6744 14.943 97.6492 15.0954 97.599 15.2479C97.5738 15.4238 97.5219 15.5511 97.4968 15.6265C97.4214 15.8527 97.2706 16.1576 97.093 16.486C96.9154 16.8647 96.6892 17.2701 96.4094 17.7007C96.334 17.8012 96.2586 17.8766 96.1564 17.9537C96.0559 18.004 95.9302 18.0291 95.7778 18.0291H95.4243C95.2215 18.0291 95.0439 18.1062 94.8931 18.2318C94.7675 18.3592 94.6921 18.5602 94.6653 18.7881C94.6653 19.0159 94.7424 19.2187 94.8931 19.3678C95.0456 19.4951 95.2483 19.5705 95.5013 19.5705C95.7275 19.594 95.9302 19.5437 96.133 19.418C96.3591 19.2907 96.5367 19.0394 96.7143 18.6842C96.9422 18.1782 97.2203 17.622 97.4984 16.9903C97.7766 16.3838 98.0798 15.7773 98.3596 15.1457C98.6377 14.5124 98.9159 13.931 99.1672 13.3999C99.4202 12.8939 99.6229 12.465 99.7737 12.1366L100.811 10.0138C101.139 9.35707 101.392 8.87622 101.62 8.57297C101.848 8.26971 102.124 8.09212 102.404 8.01672L102.732 7.96478C102.81 7.88939 102.835 7.81567 102.835 7.71347C102.81 7.61127 102.758 7.53587 102.682 7.51074C102.431 7.53587 102.201 7.53587 101.974 7.561H101.292H100.484C100.206 7.53922 99.9278 7.53922 99.6262 7.51409Z" fill="#F01010"/>
<path fill-rule="evenodd" clip-rule="evenodd" d="M41.0799 7.36152C40.7515 7.31126 40.4986 7.28613 40.2707 7.28613C39.2336 7.31126 38.3741 7.51399 37.7173 7.91777C37.0606 8.34668 36.5546 8.85266 36.2262 9.48598C35.9229 10.1176 35.7722 10.7761 35.7722 11.458C35.7722 12.0645 35.8727 12.5956 36.0503 13.0513C36.253 13.5321 36.506 13.9342 36.8327 14.2375C37.1611 14.5659 37.5665 14.7937 37.9955 14.9462C38.426 15.1238 38.9069 15.1992 39.4112 15.1992C39.7647 15.1992 40.145 15.1489 40.5488 15.0233C40.9275 14.8959 41.3061 14.6681 41.6864 14.39C42.0399 14.1118 42.3181 13.7332 42.5208 13.2775C42.4957 13.2021 42.4705 13.125 42.3951 13.1016C42.3449 13.0245 42.2695 12.9994 42.1673 13.0245C41.9646 13.3529 41.7132 13.6059 41.3832 13.832C41.0548 14.0365 40.6493 14.137 40.1199 14.137C39.438 14.137 38.8818 13.9594 38.426 13.631C37.9955 13.3043 37.6671 12.8988 37.4392 12.418C37.2113 11.9371 37.084 11.4312 37.084 10.952C37.1108 10.2701 37.2365 9.71383 37.4643 9.25811C37.7173 8.8292 38.0457 8.49915 38.426 8.27129C38.8047 8.04343 39.2336 7.9429 39.6642 7.9429C40.0428 7.9429 40.4215 8.04343 40.7515 8.24616C41.0799 8.42208 41.3329 8.64993 41.5356 8.90292C41.5859 8.95319 41.6362 9.00345 41.6881 9.02858H41.8138C41.9411 9.02858 42.0165 8.95318 42.0919 8.82753C42.169 8.70019 42.2192 8.52427 42.2192 8.34668C42.2192 8.19589 42.1941 8.04343 42.1438 7.91777C42.0919 7.79211 42.0165 7.68991 41.916 7.61452C41.6596 7.51399 41.3815 7.43859 41.0799 7.36152Z" fill="#F01010"/>
<path fill-rule="evenodd" clip-rule="evenodd" d="M33.6461 8.50082C33.7231 8.67674 33.7717 8.85434 33.7717 9.03026C33.7717 9.15759 33.7466 9.23298 33.7215 9.28325C33.6963 9.36032 33.6712 9.38377 33.6444 9.4089C33.5958 9.45917 33.4433 9.4843 33.1652 9.50943C32.862 9.53456 32.3811 9.56137 31.6992 9.56137H30.3857C30.3103 9.56137 30.2851 9.56137 30.2583 9.53624C30.2332 9.51111 30.2332 9.51111 30.2332 9.48598C30.2583 9.25812 30.3605 9.03026 30.5365 8.80407C30.7392 8.55108 30.9922 8.32323 31.3206 8.14563C31.5987 7.96803 31.9522 7.86751 32.3325 7.86751C32.7128 7.86751 32.9893 7.94458 33.192 8.07023C33.4199 8.17076 33.5707 8.32323 33.6461 8.50082ZM35.164 9.83949C35.1891 9.76242 35.1891 9.63676 35.1891 9.50943C35.1891 9.13078 35.0886 8.77727 34.8607 8.44888C34.6329 8.1205 34.3296 7.84237 33.951 7.61452C33.5472 7.41179 33.0664 7.31126 32.5101 7.28613C31.7779 7.31126 31.1463 7.51399 30.5633 7.89264C29.9819 8.27296 29.5513 8.77726 29.248 9.4089C28.9448 10.0422 28.794 10.7476 28.794 11.5334C28.794 11.9371 28.8443 12.3677 28.9699 12.7966C29.0956 13.2021 29.2732 13.5791 29.5513 13.9594C29.8294 14.3129 30.1829 14.6178 30.6638 14.844C31.1446 15.0719 31.6757 15.1724 32.2823 15.1975C32.6106 15.1975 32.9407 15.1473 33.3177 15.0216C33.698 14.8943 34.0766 14.7184 34.405 14.4654C34.7334 14.1872 34.9864 13.8589 35.2143 13.4551C35.1891 13.378 35.164 13.3043 35.1137 13.2523C35.0635 13.2272 34.9864 13.2038 34.8607 13.2272C34.5826 13.6075 34.3045 13.8337 34.0012 13.9611C33.7483 14.0867 33.4701 14.1638 33.1669 14.1386C32.485 14.1386 31.9036 13.9879 31.4479 13.6578C30.9938 13.3529 30.6387 12.924 30.4108 12.3945C30.1829 11.8634 30.0573 11.282 30.0573 10.6504C30.0321 10.4225 30.0573 10.2718 30.1344 10.1947C30.1846 10.1444 30.3103 10.1193 30.5381 10.1444H34.0012C34.3816 10.1444 34.658 10.1444 34.8356 10.1193C35.0115 10.0942 35.0886 10.069 35.1137 10.0188C35.1389 9.96682 35.1389 9.91656 35.164 9.83949Z" fill="#F01010"/>
<path fill-rule="evenodd" clip-rule="evenodd" d="M43.0502 8.17068C43.0754 8.24775 43.1005 8.29801 43.1508 8.3466H43.6567C43.8343 8.32146 43.96 8.37173 44.0103 8.4488C44.0354 8.49906 44.0605 8.65153 44.0605 8.87771V13.1752C44.0354 13.5555 44.0873 13.909 44.1862 14.1855C44.3135 14.4887 44.4911 14.7417 44.7675 14.9176C45.0708 15.0952 45.4763 15.1706 45.9806 15.1958C46.4865 15.1706 46.8903 15.0684 47.2187 14.8925C47.5471 14.7166 47.8001 14.539 47.9525 14.3095C47.9777 14.2592 47.9777 14.2089 47.9274 14.1335C47.9023 14.0565 47.8503 14.0079 47.7749 14.0079C47.7498 14.0079 47.6727 14.0565 47.5722 14.1335C47.4968 14.1838 47.3946 14.2341 47.2941 14.2592C47.2187 14.2843 47.1668 14.3346 47.0914 14.3597C46.9908 14.3849 46.8886 14.3849 46.8133 14.3849C46.4078 14.3597 46.1045 14.2592 45.9035 14.0548C45.7024 13.8789 45.5751 13.6259 45.5248 13.2975C45.4494 12.9942 45.4243 12.6642 45.4243 12.2855V8.79729C45.4243 8.62137 45.4495 8.49404 45.4997 8.41864C45.5248 8.34157 45.6254 8.31811 45.803 8.34157H47.8755C47.976 8.26618 48.0279 8.13884 48.0279 7.96125C48.0531 7.78533 48.0028 7.63286 47.8755 7.55747H45.8063C45.6539 7.55747 45.5533 7.53234 45.5282 7.50721C45.5031 7.48208 45.4779 7.38155 45.4779 7.20395V6.36959C45.4277 6.29419 45.3523 6.26738 45.2769 6.26738C45.1764 6.24225 45.0993 6.24225 45.0742 6.26738C44.9736 6.47011 44.8463 6.67284 44.6955 6.87389C44.543 7.10175 44.4174 7.25254 44.2901 7.35474C44.1878 7.45694 44.0371 7.55747 43.8109 7.65967C43.6082 7.78533 43.3803 7.8624 43.1022 7.93779C43.0754 8.01989 43.0502 8.09528 43.0502 8.17068Z" fill="#F01010"/>
<path fill-rule="evenodd" clip-rule="evenodd" d="M20.1488 7.18567C20.1488 7.13541 20.1236 7.08514 20.0968 7.05833C20.0717 7.0332 20.0466 7.0332 19.9963 7.0332C19.8438 7.13373 19.6411 7.23425 19.3898 7.36159C19.1619 7.48724 18.909 7.58945 18.6811 7.69165C18.4532 7.81898 18.2522 7.8927 18.1248 7.94464C18.0495 7.96809 18.0243 8.04517 18.0243 8.12056C18.0243 8.19596 18.0495 8.24789 18.0746 8.27302L18.2522 8.42549C18.4281 8.50088 18.5303 8.60308 18.6057 8.67848C18.6828 8.78068 18.733 8.90634 18.733 9.03199C18.7582 9.15933 18.7582 9.33525 18.733 9.56311V12.8503C18.7582 13.2792 18.7582 13.6076 18.733 13.8338C18.7079 14.0616 18.6325 14.2141 18.5303 14.2895C18.4298 14.3632 18.2773 14.4403 18.0746 14.4654L17.6959 14.5157C17.6205 14.5659 17.5937 14.643 17.6205 14.7687C17.6457 14.8692 17.6708 14.9446 17.7211 14.9965C17.9489 14.9714 18.2271 14.9463 18.5303 14.9195H19.4652H20.4252C20.7285 14.9446 21.1071 14.9714 21.5377 14.9965C21.6131 14.9463 21.6382 14.8709 21.6382 14.7687C21.6634 14.643 21.6382 14.5659 21.5628 14.5157L20.8809 14.4654C20.6531 14.4403 20.4772 14.39 20.4001 14.313C20.2744 14.2376 20.1974 14.06 20.1739 13.8321C20.1488 13.6059 20.1488 13.2775 20.1488 12.8486V10.2936C20.1488 9.96521 20.1739 9.68709 20.199 9.4341C20.2493 9.15598 20.3247 8.97838 20.4018 8.85273C20.4788 8.72539 20.5542 8.65 20.6799 8.5746C20.7804 8.49921 20.9077 8.47408 21.0585 8.47408C21.1842 8.47408 21.3367 8.49921 21.464 8.54947C21.5896 8.60141 21.7421 8.6768 21.8929 8.77733C21.97 8.80246 22.0202 8.85272 22.0705 8.87786C22.1208 8.90299 22.1978 8.90299 22.2983 8.90299C22.4743 8.90299 22.6519 8.85272 22.8295 8.72539C22.9803 8.5746 23.0808 8.34674 23.1076 8.06862C23.1076 7.81563 23.0322 7.63804 22.8546 7.51238C22.7038 7.38672 22.5011 7.30965 22.2732 7.28452C21.918 7.30965 21.5662 7.41018 21.2361 7.63804C20.8826 7.8659 20.5291 8.14402 20.2007 8.42214C20.1756 8.39701 20.1504 8.32161 20.1504 8.24622V7.18567H20.1488Z" fill="#F01010"/>
<path fill-rule="evenodd" clip-rule="evenodd" d="M15.6486 8.50082C15.7491 8.67674 15.7759 8.85434 15.7491 9.03026C15.7491 9.15759 15.7491 9.23298 15.7239 9.28325C15.7005 9.36032 15.6737 9.38377 15.6486 9.4089C15.5983 9.45917 15.4207 9.4843 15.1426 9.50943C14.8645 9.53456 14.3836 9.56137 13.7017 9.56137H12.3865C12.3094 9.56137 12.286 9.56137 12.2608 9.53624C12.2357 9.51111 12.2357 9.51111 12.2357 9.48598C12.2608 9.25812 12.3614 9.03026 12.5406 8.80407C12.7417 8.55108 12.9947 8.32323 13.3247 8.14563C13.6028 7.96803 13.9564 7.86751 14.335 7.86751C14.7137 7.86751 14.9918 7.94458 15.1945 8.07023C15.4207 8.17076 15.5732 8.32323 15.6486 8.50082ZM17.1648 9.83949C17.19 9.76242 17.19 9.63676 17.19 9.50943C17.19 9.13078 17.0894 8.77727 16.8616 8.44888C16.6337 8.1205 16.3305 7.84237 15.9501 7.61452C15.5464 7.41179 15.0655 7.31126 14.5344 7.28613C13.8022 7.31126 13.1438 7.51399 12.5624 7.89264C12.0062 8.27296 11.5773 8.77726 11.2472 9.4089C10.9439 10.0422 10.7932 10.7476 10.7932 11.5334C10.7932 11.9371 10.8434 12.3677 10.9691 12.7966C11.0964 13.2021 11.2723 13.5791 11.5504 13.9594C11.8286 14.3129 12.1838 14.6178 12.6378 14.844C13.1187 15.0719 13.6749 15.1724 14.2814 15.1975C14.6098 15.1975 14.9382 15.1473 15.3168 15.0216C15.6971 14.8943 16.0758 14.7184 16.4042 14.4654C16.7326 14.1872 16.9856 13.8589 17.2134 13.4551C17.1883 13.378 17.1631 13.3043 17.1129 13.2523C17.0375 13.2272 16.9604 13.2038 16.8599 13.2272C16.5818 13.6075 16.3036 13.8337 16.0004 13.9611C15.7474 14.0867 15.4693 14.1638 15.1409 14.1386C14.459 14.1386 13.9011 13.9879 13.447 13.6578C12.9913 13.3529 12.6378 12.924 12.4099 12.3945C12.1838 11.8634 12.0564 11.282 12.0564 10.6504C12.0313 10.4225 12.0564 10.2718 12.1318 10.1947C12.1838 10.1444 12.3077 10.1193 12.5373 10.1444H15.9987C16.3774 10.1444 16.6572 10.1444 16.8331 10.1193C17.0107 10.0942 17.0861 10.069 17.1112 10.0188C17.1397 9.96682 17.1397 9.91656 17.1648 9.83949Z" fill="#F01010"/>
<path fill-rule="evenodd" clip-rule="evenodd" d="M30.1578 1.87601C29.8043 1.67328 29.3737 1.57275 28.8694 1.57275C28.2378 1.59789 27.7067 1.72354 27.2761 1.9514C26.8472 2.17926 26.4685 2.48251 26.1653 2.86116C25.8871 3.21468 25.6609 3.56819 25.5085 3.92339C25.2806 4.4545 25.1298 5.01074 25.0528 5.56698C24.9522 6.12323 24.902 6.67947 24.902 7.23571C24.902 7.31278 24.8768 7.38818 24.8266 7.46357C24.7763 7.51384 24.7244 7.5641 24.649 7.58923L23.8414 7.99469C23.8163 8.04495 23.7912 8.12034 23.8163 8.19741C23.8163 8.24935 23.8414 8.29961 23.8917 8.3482H24.5485C24.7244 8.32307 24.8517 8.37333 24.8768 8.4504C24.9271 8.50066 24.9271 8.65313 24.902 8.87932V12.8501C24.9271 13.279 24.9271 13.6074 24.8768 13.8336C24.8517 14.0614 24.8014 14.2139 24.7009 14.2893C24.6004 14.3898 24.4479 14.4401 24.2201 14.4652L23.7895 14.5155C23.7141 14.5657 23.689 14.6428 23.689 14.7685C23.7141 14.869 23.7392 14.9444 23.8163 14.9963C24.0944 14.9712 24.3725 14.9461 24.6507 14.9192H25.6375H26.5724C26.8756 14.9444 27.2292 14.9712 27.6597 14.9963C27.71 14.9461 27.7351 14.8707 27.7603 14.7685C27.7854 14.6428 27.7603 14.5657 27.6832 14.5155L27.0264 14.4652C26.7986 14.4401 26.6226 14.3898 26.5204 14.3127C26.4434 14.2373 26.3697 14.0598 26.3445 13.8319C26.3177 13.6057 26.3177 13.2773 26.3177 12.8484V8.87764C26.3177 8.64978 26.3177 8.49899 26.3445 8.44873C26.3697 8.37333 26.4702 8.32139 26.6478 8.34653H28.6198C28.6952 8.32139 28.7722 8.246 28.8225 8.17061C28.8476 8.04495 28.8728 7.94442 28.8728 7.84222C28.8728 7.71489 28.8476 7.6395 28.7722 7.5641H26.6478C26.4702 7.58923 26.3697 7.5641 26.3445 7.48703C26.3177 7.41163 26.3177 7.25917 26.3177 7.03299V6.47674C26.3177 6.17349 26.3177 5.81998 26.3445 5.43965C26.3697 5.06101 26.3948 4.70581 26.4702 4.3523C26.5456 3.97365 26.6226 3.64526 26.7232 3.34201C26.8505 3.01363 27.0516 2.76064 27.2794 2.58304C27.5089 2.40544 27.7603 2.30492 28.0384 2.30492C28.3668 2.30492 28.6449 2.38199 28.8979 2.55791C29.1509 2.7355 29.3536 2.9131 29.5295 3.14096C29.6066 3.21468 29.6803 3.26829 29.7574 3.29175C29.8076 3.31688 29.883 3.34201 29.9852 3.34201C30.188 3.34201 30.3656 3.29175 30.4912 3.16441C30.6169 3.03708 30.6923 2.86116 30.7191 2.68357C30.6889 2.35686 30.5113 2.07873 30.1578 1.87601Z" fill="#F01010"/>
<path fill-rule="evenodd" clip-rule="evenodd" d="M80.7927 7.05833C80.7424 7.0332 80.6922 7.0332 80.6671 7.0332C80.5414 7.13373 80.3638 7.23425 80.1376 7.36159C79.7238 7.54923 79.2178 7.80055 78.7973 7.94464C78.747 7.96809 78.7219 8.04517 78.7219 8.12056C78.7219 8.19596 78.747 8.24789 78.7721 8.27302L78.9497 8.37355C79.1022 8.49921 79.2279 8.60141 79.3033 8.6768C79.3786 8.779 79.3854 8.81921 79.4122 8.94487C79.4373 9.0722 79.4306 9.33357 79.4306 9.56143V12.8486C79.4557 13.2775 79.4306 13.6059 79.4038 13.8321C79.3787 14.06 79.3284 14.2124 79.2279 14.2878C79.1257 14.3884 78.9749 14.4386 78.747 14.4637L78.3416 14.514C78.2913 14.5643 78.2662 14.6413 78.2913 14.767C78.2913 14.8675 78.3164 14.9429 78.3935 14.9949C78.6465 14.9697 78.9246 14.9446 79.2279 14.9178H80.1376H81.0457C81.3238 14.9429 81.6036 14.9697 81.8298 14.9949C81.9069 14.9446 81.932 14.8692 81.9571 14.767C81.9571 14.6413 81.932 14.5643 81.8801 14.514L81.5517 14.4637C81.3238 14.4386 81.1462 14.3615 81.0457 14.2878C80.9703 14.2108 80.8949 14.0583 80.8698 13.8321C80.8447 13.6059 80.8446 13.2775 80.8446 12.8486V9.99202C80.8446 9.56143 80.853 9.21964 81.0976 8.8544C81.2233 8.6768 81.4512 8.50088 81.7544 8.37355C82.0325 8.24789 82.3358 8.19595 82.7161 8.19595C83.3477 8.22108 83.7783 8.39868 84.0548 8.72707C84.3346 9.05545 84.4602 9.51117 84.4602 10.0423V12.8486C84.4602 13.2775 84.4602 13.6059 84.4351 13.8321C84.41 14.06 84.3346 14.2124 84.2575 14.2878C84.1318 14.3615 83.9794 14.4386 83.7532 14.4637L83.398 14.514C83.3477 14.5643 83.3209 14.6413 83.3209 14.767C83.3478 14.8675 83.3729 14.9429 83.4483 14.9949C83.6778 14.9697 83.9543 14.9446 84.2575 14.9178H85.1673H86.077C86.3551 14.9429 86.6584 14.9697 86.9365 14.9949C86.9868 14.9446 87.0387 14.8692 87.0639 14.767C87.0639 14.6413 87.0387 14.5643 86.9633 14.514L86.5595 14.4637C86.3317 14.4386 86.1792 14.3884 86.0536 14.2878C85.9782 14.2108 85.9028 14.0583 85.8776 13.8321C85.8525 13.6059 85.8525 13.2775 85.8525 12.8486V9.6117C85.8525 9.18111 85.7771 8.80246 85.6263 8.47408C85.4739 8.12056 85.2477 7.84244 84.9193 7.61458C84.5909 7.41185 84.1855 7.31133 83.6544 7.2862C83.1735 7.31133 82.7195 7.41185 82.2889 7.58945C81.8583 7.76704 81.4294 7.9949 81.0256 8.24789C80.9753 8.24789 80.9234 8.22108 80.8983 8.19595C80.8731 8.17082 80.848 8.12056 80.848 8.0703V7.68997C80.848 7.56432 80.848 7.38672 80.8731 7.18399C80.843 7.1086 80.8178 7.08514 80.7927 7.05833Z" fill="#F01010"/>
<path fill-rule="evenodd" clip-rule="evenodd" d="M75.4078 8.44867C75.763 8.80219 76.0143 9.2579 76.1919 9.81415C76.3679 10.3704 76.4449 10.9266 76.4198 11.4577C76.4449 11.9637 76.3695 12.4446 76.2188 12.9237C76.0914 13.4046 75.8636 13.8084 75.5603 14.1368C75.2319 14.4651 74.8013 14.6176 74.2702 14.6176C73.714 14.6176 73.2599 14.44 72.9299 14.1116C72.5512 13.7581 72.2982 13.3292 72.1223 12.7981C71.9447 12.2418 71.8442 11.6856 71.8442 11.1042C71.8693 10.0671 72.0704 9.25791 72.4758 8.72679C72.8562 8.14542 73.3873 7.8673 74.0189 7.8673C74.5986 7.8673 75.0795 8.07002 75.4078 8.44867ZM77.5323 13.2505C77.8607 12.644 78.0115 11.9369 78.0383 11.1545C78.0131 10.3955 77.8355 9.71362 77.5072 9.13225C77.1788 8.54919 76.7231 8.09515 76.1417 7.76677C75.5603 7.46352 74.9287 7.31273 74.2468 7.2876C73.4878 7.31273 72.8059 7.48865 72.2245 7.81871C71.618 8.14542 71.1388 8.62627 70.7837 9.23277C70.4301 9.83928 70.2542 10.5463 70.2542 11.3555C70.2542 12.1396 70.4318 12.8216 70.7837 13.4029C71.112 13.9592 71.5426 14.3881 72.124 14.7181C72.7054 15.0214 73.3621 15.1722 74.0709 15.1973C74.8533 15.1722 75.562 15.0214 76.1417 14.6913C76.7482 14.3395 77.2039 13.8586 77.5323 13.2505Z" fill="#F01010"/>
<path fill-rule="evenodd" clip-rule="evenodd" d="M88.9319 9.56137C88.8817 9.56137 88.8565 9.56137 88.8314 9.53624C88.8063 9.51111 88.8063 9.51111 88.8063 9.48598C88.8314 9.25812 88.9336 9.03026 89.1095 8.80407C89.3123 8.55108 89.5652 8.32323 89.8702 8.14563C90.1734 7.96803 90.5269 7.86751 90.9056 7.86751C91.2591 7.86751 91.5372 7.94458 91.74 8.07023C91.9678 8.17076 92.1186 8.32155 92.2208 8.49914C92.2979 8.67506 92.3465 8.85266 92.3213 9.02858C92.3213 9.15591 92.3213 9.23131 92.2962 9.28157C92.2711 9.35864 92.2459 9.3821 92.2191 9.40723C92.1689 9.45749 91.9913 9.48263 91.7131 9.50776C91.435 9.53289 90.9307 9.5597 90.2471 9.5597H88.9319V9.56137ZM88.6789 10.193C88.756 10.1427 88.8817 10.1176 89.1078 10.1427H92.5726C92.953 10.1427 93.2294 10.1427 93.407 10.1176C93.7471 10.0606 93.7605 9.83781 93.7605 9.50943C93.7605 9.13078 93.6332 8.77727 93.407 8.44888C93.2043 8.1205 92.9027 7.84237 92.5224 7.61452C92.1169 7.41179 91.6361 7.31126 91.0815 7.28613C90.3493 7.31126 89.7177 7.51399 89.1347 7.89264C88.5533 8.27296 88.1227 8.77726 87.8211 9.4089C87.4927 10.0422 87.3403 10.7476 87.3403 11.5334C87.3403 11.9371 87.4157 12.3677 87.543 12.7966C87.6435 13.2021 87.8446 13.5791 88.1227 13.9594C88.4008 14.3129 88.756 14.6178 89.21 14.844C89.6892 15.0719 90.222 15.1724 90.8285 15.1975C91.1569 15.1975 91.5104 15.1473 91.8907 15.0216C92.2694 14.8943 92.6229 14.7184 92.953 14.4654C93.2814 14.1872 93.5595 13.8589 93.7873 13.4551C93.7622 13.378 93.7371 13.3043 93.66 13.2523C93.6097 13.2272 93.5343 13.2038 93.407 13.2272C93.1289 13.6075 92.8508 13.8337 92.5726 13.9611C92.3197 14.0867 92.0415 14.1638 91.7131 14.1386C91.0312 14.1386 90.475 13.9879 90.0193 13.6578C89.5636 13.3529 89.21 12.924 88.9587 12.3945C88.823 12.0779 88.7225 11.7411 88.6639 11.3876C88.6186 11.1162 88.5834 10.7258 88.5952 10.4493C88.6002 10.3287 88.6287 10.2449 88.6789 10.193Z" fill="#F01010"/>
<path fill-rule="evenodd" clip-rule="evenodd" d="M56.4738 2.58501H55.7919C55.5641 2.5582 55.2859 2.5582 55.0078 2.53474C54.9324 2.55987 54.9056 2.63695 54.8822 2.73747C54.857 2.838 54.8822 2.91507 54.9324 2.99046L55.2357 3.0156C55.6143 3.08931 55.8924 3.16638 56.07 3.24345C56.2476 3.34398 56.3716 3.52157 56.4236 3.74943C56.4738 3.97729 56.4989 4.27887 56.4738 4.65919C56.4487 5.19031 56.4236 5.82194 56.3984 6.55411C56.3716 7.28795 56.3214 8.04692 56.2711 8.82934C56.246 9.43585 56.1974 9.96696 56.1689 10.421C56.1438 10.9019 56.0935 11.3324 56.0684 11.7111C56.0432 12.1149 55.993 12.5203 55.9662 12.9241C55.9159 13.353 55.8656 13.6831 55.7902 13.8841C55.7132 14.0869 55.5875 14.2125 55.4367 14.2896C55.2591 14.3633 55.0581 14.4404 54.8051 14.4655L54.3996 14.5158C54.3242 14.566 54.2991 14.6431 54.3242 14.7688C54.3242 14.8441 54.3494 14.9195 54.4248 14.9966C54.7532 14.9715 55.0581 14.9463 55.3848 14.9195H56.3465H57.3819C57.7606 14.9447 58.0906 14.9715 58.3922 14.9966C58.4693 14.9463 58.5195 14.871 58.5195 14.7688C58.5195 14.6665 58.4944 14.5912 58.4173 14.5158L57.7103 14.4655C57.4824 14.4404 57.3048 14.3901 57.1792 14.2896C57.0535 14.1874 56.9765 14.0115 56.9513 13.7836C56.8759 13.5323 56.8491 13.1771 56.8759 12.7214C56.8759 11.9373 56.9011 11.1548 56.9262 10.3707C56.9513 9.58664 56.9764 8.90474 57.0016 8.32336C57.0267 7.79225 57.0786 7.23601 57.1021 6.67976C57.1272 6.12352 57.1524 5.56727 57.1792 5.01103H57.2294C57.4322 5.43994 57.6349 5.87053 57.8125 6.3497C58.0152 6.80542 58.2163 7.25946 58.4173 7.69005L60.1112 11.304C60.2636 11.6089 60.4412 11.9875 60.6423 12.4433C60.8702 12.9224 61.0963 13.3781 61.2991 13.8322C61.5018 14.2879 61.6526 14.6917 61.7548 15.0452C61.7799 15.0703 61.805 15.0703 61.8302 15.0971L61.9056 15.1223C61.9575 15.1223 62.0078 15.1223 62.0329 15.0971C62.058 15.0703 62.0832 15.0703 62.11 15.0452C62.2356 14.7419 62.3881 14.3633 62.616 13.9093C62.8187 13.4535 63.0449 12.9476 63.2979 12.4181C63.576 11.887 63.8541 11.3308 64.1574 10.7745L65.1978 8.70871C65.7674 7.57779 66.3605 6.04645 67.0123 5.05962H67.0374L67.0894 12.8722C67.1128 13.2759 67.0894 13.5792 67.0642 13.8054C67.0073 14.308 66.6253 14.4286 66.1796 14.4638L65.6234 14.5141C65.5731 14.5643 65.548 14.6414 65.5731 14.7671C65.5731 14.8425 65.5982 14.9179 65.6736 14.9949C66.0523 14.9698 66.456 14.9447 66.8364 14.9179H67.9489H69.0111C69.3897 14.943 69.7701 14.9698 70.1487 14.9949C70.2258 14.9447 70.2509 14.8693 70.2509 14.7671C70.276 14.6649 70.2509 14.5895 70.2006 14.5141L69.5941 14.4638C69.1686 14.4253 68.7933 14.2159 68.7346 13.7551C68.7095 13.5289 68.6827 13.2491 68.6827 12.9459C68.6324 12.0361 68.6073 11.0744 68.5822 10.0893C68.5554 9.07731 68.5051 8.11728 68.48 7.20753V4.80496C68.48 4.37605 68.5051 4.04598 68.5554 3.79299C68.6073 3.56513 68.733 3.36408 68.9089 3.23675C69.0865 3.13622 69.388 3.05916 69.7935 3.00889L70.1722 2.98376C70.2241 2.9335 70.2492 2.8581 70.2241 2.73077C70.2241 2.6537 70.199 2.57831 70.147 2.52804C69.8438 2.55318 69.5405 2.55317 69.2624 2.57831H68.4783C68.0108 2.57831 67.5551 2.56323 67.0877 2.52804C67.0626 2.95695 66.9101 3.4378 66.6822 3.99405C66.4041 4.57542 66.0757 5.28413 65.6719 6.11682L63.9027 9.68046C63.6748 10.1613 63.447 10.6422 63.2208 11.1213C62.9929 11.6022 62.7399 12.0562 62.4618 12.5119H62.4115C62.1837 12.0814 61.981 11.6776 61.7799 11.247C61.5521 10.7929 61.3493 10.3372 61.1483 9.90832L59.0004 5.61084C58.7222 5.00433 58.4693 4.42296 58.2682 3.89184C58.0906 3.36073 58.0152 2.90669 58.0404 2.52637C57.5176 2.57663 56.9982 2.58501 56.4738 2.58501Z" fill="#F01010"/>
<path fill-rule="evenodd" clip-rule="evenodd" d="M2.25011 2.88819C2.22498 2.98871 2.27524 3.06411 2.35231 3.14118L3.00908 3.21657C3.2872 3.24338 3.48993 3.31877 3.61558 3.44443C3.74124 3.54496 3.81831 3.72255 3.84177 4.00067C3.86857 4.27879 3.89203 4.68425 3.89203 5.21369V8.95493C4.39801 8.98173 4.90399 8.98173 5.40997 8.95493V3.79795C5.38484 3.59522 5.40997 3.44443 5.46024 3.3171C5.48537 3.2417 5.58589 3.16463 5.71322 3.14118C5.86401 3.11605 6.11868 3.11604 6.44539 3.11604C7.40541 3.14117 8.13925 3.39417 8.67036 3.92528C9.17634 4.45639 9.42933 5.19023 9.42933 6.09999C9.45614 6.90922 9.25341 7.59112 8.82283 8.14737C8.44418 8.62821 7.88794 8.98173 7.12896 9.15933C6.3968 9.33692 5.35971 9.41232 3.9691 9.38719C2.75609 9.36373 1.44087 9.28666 0 9.13587C1.59334 9.46426 2.78122 9.69212 3.53851 9.76751C4.77666 9.91998 5.98967 9.89485 7.12729 9.71725C7.70866 9.64018 8.23978 9.48939 8.72062 9.31179C9.17467 9.10907 9.63039 8.83262 10.1112 8.50256C10.3894 8.29983 10.6407 7.97145 10.8685 7.54086C11.0461 7.13708 11.1467 6.65623 11.1718 6.07486C11.1467 5.44322 10.9959 4.88865 10.7177 4.40613C10.4396 3.92528 10.1112 3.54663 9.68065 3.27019C9.25174 3.01719 8.72063 2.81447 8.11244 2.68713C7.53107 2.58661 6.84749 2.53467 6.06507 2.53467C5.3061 2.53467 4.62419 2.53467 4.01769 2.5598C3.41118 2.58661 2.85494 2.61006 2.37409 2.66033C2.30037 2.71059 2.25011 2.78599 2.25011 2.88819Z" fill="#F01010"/>
<path fill-rule="evenodd" clip-rule="evenodd" d="M5.40995 12.1417V10.3708C4.85203 10.3959 4.34772 10.3708 3.89201 10.2954V12.1417C3.89201 12.7717 3.86687 13.2526 3.81661 13.5809C3.79148 13.911 3.69095 14.112 3.51168 14.2126C3.38603 14.3399 3.13304 14.4404 2.75439 14.4656L2.37407 14.5158C2.29867 14.5912 2.27354 14.6666 2.29867 14.7688C2.29867 14.8693 2.3238 14.9447 2.40087 14.9967C2.80465 14.9715 3.1833 14.9464 3.53849 14.9196H4.67611H5.76346C6.14211 14.9447 6.59783 14.9715 7.12894 14.9967C7.1792 14.9464 7.20601 14.871 7.22947 14.7688C7.22947 14.6432 7.20434 14.5661 7.15407 14.5158L6.64809 14.4656C6.24264 14.4404 5.96619 14.3634 5.81373 14.2377C5.63613 14.112 5.51047 13.9093 5.45853 13.5809C5.40995 13.2509 5.38482 12.7717 5.40995 12.1417Z" fill="#F01010"/>
<path fill-rule="evenodd" clip-rule="evenodd" d="M56.06 18.0054H56.834V20.7531C56.834 21.9225 56.2677 22.3129 55.425 22.3129C55.2105 22.3129 54.9408 22.2744 54.7766 22.2124L54.8704 21.5891C54.9961 21.6277 55.1653 21.6645 55.3496 21.6645C55.7886 21.6645 56.0583 21.4635 56.0583 20.7263V18.0054H56.06Z" fill="white"/>
<path fill-rule="evenodd" clip-rule="evenodd" d="M60.897 21.3245C60.897 21.688 60.9087 21.9913 60.9221 22.2426H60.2435L60.2067 21.7768H60.1933C60.0626 21.998 59.761 22.3113 59.2132 22.3113C58.6536 22.3113 58.1442 21.9779 58.1442 20.9793V19.1799H58.9183V20.8453C58.9183 21.3546 59.0825 21.6813 59.4896 21.6813C59.7979 21.6813 59.9989 21.4618 60.081 21.2658C60.1062 21.1971 60.1246 21.115 60.1246 21.0262V19.1782H60.8986V21.3245H60.897Z" fill="white"/>
<path fill-rule="evenodd" clip-rule="evenodd" d="M62.1987 21.5323C62.3747 21.6396 62.7064 21.7518 62.9845 21.7518C63.3246 21.7518 63.4737 21.6144 63.4737 21.4117C63.4737 21.2039 63.3481 21.0984 62.9711 20.966C62.3747 20.7583 62.1217 20.4316 62.1284 20.073C62.1284 19.5319 62.574 19.1113 63.2844 19.1113C63.6245 19.1113 63.9194 19.1985 64.0953 19.2923L63.9445 19.8385C63.8122 19.7631 63.5676 19.6625 63.2961 19.6625C63.0197 19.6625 62.8689 19.7949 62.8689 19.9842C62.8689 20.1786 63.013 20.2741 63.4034 20.4115C63.9579 20.6142 64.2143 20.8957 64.221 21.3497C64.221 21.9026 63.787 22.3114 62.9761 22.3114C62.6042 22.3114 62.2724 22.2176 62.0463 22.0919L62.1987 21.5323Z" fill="white"/>
<path fill-rule="evenodd" clip-rule="evenodd" d="M66.2466 18.396V19.1818H66.9821V19.7598H66.2466V21.1119C66.2466 21.4821 66.3471 21.6782 66.6437 21.6782C66.7878 21.6782 66.8565 21.6648 66.9453 21.6396L66.9587 22.2311C66.8447 22.2746 66.6437 22.3132 66.3991 22.3132C66.1143 22.3132 65.8763 22.2126 65.7323 22.0551C65.5697 21.8792 65.4944 21.6028 65.4944 21.2007V19.7615H65.0537V19.1835H65.4944V18.6172L66.2466 18.396Z" fill="white"/>
<path fill-rule="evenodd" clip-rule="evenodd" d="M70.648 20.961C70.648 21.0364 70.6547 21.1051 70.6748 21.1755C70.7502 21.4904 71.0266 21.7166 71.3533 21.7166C71.8442 21.7166 72.1341 21.3078 72.1341 20.7047C72.1341 20.1635 71.8694 19.7245 71.3734 19.7245C71.0518 19.7245 70.7569 19.9574 70.6815 20.2959C70.6631 20.3579 70.6496 20.4282 70.6496 20.4902V20.961H70.648ZM69.8756 20.1987C69.8756 19.7966 69.8622 19.4699 69.8505 19.18H70.529L70.5676 19.6525H70.5793C70.8055 19.3057 71.164 19.1113 71.6298 19.1113C72.3351 19.1113 72.9199 19.7145 72.9199 20.6695C72.9199 21.7753 72.2229 22.3114 71.5242 22.3114C71.1405 22.3114 70.8205 22.1472 70.663 21.9026H70.6496V23.4876H69.8773V20.1987H69.8756Z" fill="white"/>
<path fill-rule="evenodd" clip-rule="evenodd" d="M75.949 20.388C75.9557 20.1049 75.8301 19.6391 75.314 19.6391C74.8365 19.6391 74.6355 20.073 74.6053 20.388H75.949ZM74.6036 20.9292C74.6204 21.4821 75.056 21.7217 75.5469 21.7217C75.9054 21.7217 76.1635 21.6714 76.3964 21.5826L76.5103 22.1171C76.2472 22.2243 75.882 22.3114 75.4414 22.3114C74.4478 22.3114 73.8631 21.6948 73.8631 20.7583C73.8631 19.9088 74.3791 19.1113 75.3593 19.1113C76.3595 19.1113 76.6795 19.9289 76.6795 20.6008C76.6795 20.7449 76.6661 20.8588 76.6544 20.9275H74.6036V20.9292Z" fill="white"/>
<path fill-rule="evenodd" clip-rule="evenodd" d="M77.8037 20.1683C77.8037 19.7528 77.797 19.4579 77.7786 19.1815H78.4504L78.4772 19.7662H78.5024C78.6531 19.3323 79.0117 19.1128 79.3384 19.1128C79.4138 19.1128 79.4574 19.1195 79.521 19.1312V19.86C79.4574 19.8483 79.3887 19.8349 79.2948 19.8349C78.9246 19.8349 78.6716 20.0728 78.6029 20.4196C78.5895 20.4883 78.5777 20.5704 78.5777 20.6575V22.2425H77.8054V20.1683H77.8037Z" fill="white"/>
<path fill-rule="evenodd" clip-rule="evenodd" d="M80.8094 22.2427V19.7597H80.3939V19.1817H80.8094V19.0493C80.8094 18.6539 80.9167 18.2569 81.1797 18.0055C81.4059 17.7911 81.7142 17.709 81.9789 17.709C82.1866 17.709 82.3491 17.7408 82.4748 17.7861L82.4195 18.3825C82.3374 18.3507 82.2302 18.3255 82.0928 18.3255C81.7091 18.3255 81.5768 18.6472 81.5768 19.0242V19.1817H82.2486V19.7597H81.5818V22.2427H80.8094Z" fill="white"/>
<path fill-rule="evenodd" clip-rule="evenodd" d="M85.0533 20.388C85.06 20.1049 84.9327 19.6391 84.4184 19.6391C83.9409 19.6391 83.7398 20.073 83.708 20.388H85.0533ZM83.708 20.9292C83.7264 21.4821 84.1603 21.7217 84.6512 21.7217C85.0098 21.7217 85.2678 21.6714 85.499 21.5826L85.6129 22.1171C85.3499 22.2243 84.9847 22.3114 84.544 22.3114C83.5505 22.3114 82.9658 21.6948 82.9658 20.7583C82.9658 19.9088 83.4818 19.1113 84.4619 19.1113C85.4622 19.1113 85.7805 19.9289 85.7805 20.6008C85.7805 20.7449 85.7688 20.8588 85.7553 20.9275H83.708V20.9292Z" fill="white"/>
<path fill-rule="evenodd" clip-rule="evenodd" d="M89.1598 22.1487C88.9956 22.2241 88.6756 22.3129 88.2919 22.3129C87.3353 22.3129 86.7137 21.6963 86.7137 20.7463C86.7137 19.8282 87.342 19.1128 88.4176 19.1128C88.7007 19.1128 88.9889 19.1748 89.1648 19.2569L89.0275 19.8366C88.9018 19.7796 88.7192 19.7176 88.4427 19.7176C87.8513 19.7176 87.4995 20.1516 87.5045 20.7112C87.5045 21.3394 87.9133 21.698 88.4427 21.698C88.7125 21.698 88.9018 21.6427 89.0526 21.579L89.1598 22.1487Z" fill="white"/>
<path fill-rule="evenodd" clip-rule="evenodd" d="M91.2156 18.396V19.1818H91.9511V19.7598H91.2156V21.1119C91.2156 21.4821 91.3161 21.6782 91.6127 21.6782C91.7567 21.6782 91.8254 21.6648 91.9142 21.6396L91.926 22.2311C91.812 22.2746 91.611 22.3132 91.3664 22.3132C91.0832 22.3132 90.8436 22.2126 90.6995 22.0551C90.537 21.8792 90.46 21.6028 90.46 21.2007V19.7615H90.021V19.1835H90.46V18.6172L91.2156 18.396Z" fill="white"/>
<path fill-rule="evenodd" clip-rule="evenodd" d="M108.07 3.13256H107.906H107.749C107.695 3.12586 107.631 3.12586 107.568 3.12083C107.551 3.12586 107.544 3.14429 107.538 3.16775C107.533 3.1912 107.538 3.20963 107.549 3.22639L107.62 3.23309C107.707 3.24984 107.772 3.26827 107.812 3.28503C107.853 3.30848 107.883 3.3487 107.894 3.40231C107.906 3.45425 107.911 3.52461 107.906 3.61341C107.899 3.73572 107.894 3.88315 107.889 4.05237C107.883 4.22327 107.871 4.39752 107.859 4.58014C107.848 4.86161 107.822 5.54519 107.745 5.74792C107.727 5.79483 107.698 5.82331 107.663 5.84174C107.621 5.85849 107.574 5.87692 107.516 5.88195L107.422 5.89368C107.405 5.90541 107.399 5.92384 107.405 5.95232C107.405 5.97075 107.41 5.9875 107.429 6.00593C107.506 6.0009 107.576 5.9942 107.652 5.9875H107.874H108.116C108.204 5.9942 108.28 5.99923 108.35 6.00593C108.369 5.9942 108.38 5.97745 108.38 5.95232C108.38 5.92886 108.375 5.91043 108.357 5.89368L108.193 5.88195C108.139 5.87525 108.099 5.86352 108.069 5.84174C108.054 5.83001 108.042 5.81326 108.034 5.79315C107.998 5.70938 107.998 5.56864 108 5.48152C108.003 5.30058 108.007 5.11795 108.012 4.93701C108.018 4.75606 108.023 4.59689 108.028 4.46286C108.034 4.34055 108.047 4.21154 108.052 4.08254C108.059 3.95353 108.064 3.82452 108.07 3.69551H108.082C108.129 3.79436 108.176 3.89488 108.216 4.00546C108.263 4.11101 108.31 4.21657 108.357 4.31542L108.749 5.15313C108.784 5.2235 108.826 5.3123 108.871 5.41785C108.925 5.52843 108.977 5.63398 109.024 5.73953C109.049 5.79482 109.071 5.84844 109.087 5.89703C109.092 5.89703 109.124 6.00425 109.129 6.01766C109.151 6.04111 109.19 6.03944 109.211 6.01766C109.248 5.93053 109.285 5.84174 109.329 5.75797C109.439 5.50833 109.555 5.27042 109.685 5.03083L110.066 4.27521C110.096 4.20987 110.124 4.1395 110.165 4.0641C110.207 3.98201 110.247 3.90661 110.282 3.84127C110.31 3.7709 110.334 3.72399 110.346 3.70723H110.352L110.364 5.51838C110.369 5.6122 110.364 5.68257 110.357 5.73451C110.352 5.77639 110.341 5.81661 110.3 5.83671C110.277 5.8652 110.23 5.87692 110.153 5.88362L110.024 5.89535C110.012 5.90708 110.007 5.92551 110.012 5.95399C110.012 5.97242 110.019 5.98918 110.036 6.00761C110.123 6.00258 110.217 5.99588 110.305 5.98918H110.563H110.81C110.897 5.99588 110.986 6.0009 111.074 6.00761C111.093 5.99588 111.098 5.97912 111.098 5.95399C111.103 5.93053 111.098 5.9121 111.086 5.89535L110.945 5.88362C110.88 5.87692 110.833 5.86017 110.805 5.83001C110.776 5.80153 110.753 5.76634 110.746 5.71775C110.739 5.66582 110.734 5.60047 110.734 5.53011C110.723 5.3123 110.714 5.09114 110.709 4.87166C110.702 4.6371 110.691 4.41427 110.686 4.20317V3.64692C110.686 3.54807 110.691 3.471 110.702 3.41236C110.714 3.36042 110.744 3.31351 110.785 3.28335C110.826 3.25989 110.895 3.24147 110.989 3.23141L111.076 3.22471C111.088 3.21299 111.093 3.19623 111.088 3.16607C111.088 3.14764 111.081 3.13089 111.071 3.11916C111.001 3.12419 110.93 3.12418 110.867 3.13089H110.686H110.552C110.498 3.12418 110.439 3.12419 110.364 3.11916C110.357 3.21801 110.324 3.33027 110.27 3.45927C110.207 3.59331 110.129 3.7575 110.036 3.95185L109.625 4.77784C109.518 5.00235 109.422 5.2168 109.292 5.42958H109.28C109.176 5.23355 109.081 5.03083 108.987 4.82978L108.489 3.83289C108.426 3.69216 108.367 3.55813 108.32 3.43414C108.278 3.31184 108.261 3.20628 108.268 3.11748C108.199 3.12754 108.136 3.12754 108.07 3.13256ZM105.666 5.36089C105.666 5.51 105.659 5.62393 105.648 5.701C105.636 5.85179 105.537 5.90038 105.396 5.91043L105.306 5.92216C105.277 5.95064 105.279 6.01431 105.313 6.03609C105.499 6.02436 105.664 6.01766 105.85 6.01766C106.048 6.01766 106.232 6.02604 106.43 6.03609C106.442 6.02436 106.449 6.00593 106.454 5.98247C106.454 5.95232 106.447 5.93388 106.435 5.92216L106.316 5.91043C106.221 5.90373 106.155 5.88698 106.119 5.85682C106.117 5.85514 106.113 5.85347 106.112 5.85179C106.075 5.82163 106.05 5.7764 106.038 5.70435C106.026 5.62728 106.02 5.51335 106.026 5.36424V4.94538C105.896 4.95208 105.775 4.94538 105.668 4.92695L105.666 5.36089ZM105.282 3.1778C105.276 3.20126 105.289 3.21969 105.306 3.23812L105.462 3.25654C105.527 3.26324 105.576 3.28 105.606 3.31016C105.636 3.33361 105.654 3.3755 105.659 3.44084C105.666 3.50618 105.671 3.60169 105.671 3.72734V4.61197C105.79 4.61867 105.911 4.61867 106.03 4.61197V3.39393C106.023 3.34702 106.03 3.31016 106.041 3.28C106.048 3.26157 106.072 3.24482 106.102 3.23812C106.137 3.23141 106.197 3.23141 106.274 3.23141C106.5 3.23811 106.675 3.29676 106.8 3.42241C106.919 3.54807 106.98 3.72064 106.98 3.93677C106.986 4.12777 106.938 4.28861 106.837 4.42097C106.748 4.5349 106.616 4.61867 106.437 4.66056C106.264 4.70244 106.018 4.72087 105.69 4.71417C105.403 4.70914 105.091 4.69072 104.751 4.65386C105.128 4.73093 105.408 4.78454 105.587 4.80297C105.881 4.83983 106.167 4.83313 106.435 4.79124C106.573 4.77281 106.698 4.73763 106.812 4.69574C106.919 4.64883 107.027 4.58181 107.141 4.50474C107.206 4.45615 107.266 4.37909 107.32 4.27689C107.362 4.18139 107.385 4.06746 107.392 3.93007C107.385 3.78096 107.35 3.65027 107.285 3.53634C107.219 3.42241 107.141 3.33361 107.04 3.26827C106.938 3.20796 106.814 3.16104 106.67 3.13089C106.532 3.10743 106.371 3.0957 106.186 3.0957C106.006 3.0957 105.845 3.0957 105.701 3.10241C105.557 3.10911 105.427 3.11413 105.313 3.12586C105.294 3.13591 105.282 3.15435 105.282 3.1778Z" fill="#FEFEFE"/>
</svg>
